<svg xmlns="http://www.w3.org/2000/svg" width="400" height="80" viewBox="0 0 400 80">
  <g fill="none" fill-rule="evenodd">
    <path fill="#FFF" d="M60.6129039,1.55767769 L18.8389338,1.56532039 C9.29731511,1.56532039 1.56020733,9.26610855 1.56020733,18.7659891 L1.56020733,60.7855736 C1.56020733,70.2839256 9.29578845,77.9847138 18.8389338,77.9847138 L60.6129039,77.9770711 C70.1545226,77.9770711 77.8916304,70.2762829 77.8916304,60.7779309 L77.8916304,18.7568179 C77.8916304,9.25846584 70.1545226,1.55767769 60.6129039,1.55767769 Z"/>
    <path fill="#E6EBF3" d="M60.7342733,0.0294426778 C70.1734532,0.119168018 78.9576964,7.99298698 79.3995115,17.9136748 C79.4103508,18.1542671 79.4156941,18.3950123 79.4179841,18.6357575 C79.4633259,32.7234002 79.4633259,46.8111957 79.4179841,60.8988384 C79.368215,66.1200278 77.04235,71.2566889 73.1701321,74.7182222 C69.7812545,77.7476371 65.2927244,79.4625069 60.7342733,79.5051532 C46.7287037,79.5500923 32.7231341,79.557735 18.7175644,79.5127959 C9.23060012,79.4239877 0.49414135,71.5486402 0.0523262371,61.6285638 C0.0416396241,61.3879715 0.0362963176,61.1473791 0.0340063291,60.9064811 C-0.011335443,46.8194498 -0.011335443,32.7321128 0.0340063291,18.6449287 C0.0843860759,13.3577064 2.47681339,8.14293683 6.45055409,4.67513649 C9.81592117,1.7380455 14.2435376,0.0795788135 18.7175644,0.0370853815 C32.7231341,-0.00693659132 46.7288563,-0.0145792949 60.7342733,0.0294426778 Z M18.8415292,3.09386112 C10.7606178,3.11923489 3.1702219,9.95609183 3.08717165,18.664494 C3.04198255,32.7385327 3.04198255,46.8128771 3.08717165,60.8869158 C3.1648786,69.0343436 10.2331571,76.3760775 18.7368003,76.4557145 C32.729546,76.5006536 46.7224444,76.4930109 60.7150374,76.4480718 C68.8190013,76.3722561 76.2826845,69.4812889 76.3646661,60.8792731 C76.4100079,46.8047759 76.4100079,32.7299729 76.3646661,18.6553228 C76.2872645,10.5318931 69.2290619,3.16738392 60.7150374,3.08652412 C46.7572522,3.042655 32.7993143,3.0912626 18.8415292,3.09386112 Z"/>
    <path fill="#1E6AFF" d="M62.3284106,16.1261993 C63.8608709,16.3493663 64.7957969,18.1163593 64.106663,19.5139041 C57.9359074,30.7307945 51.8494233,41.9944582 45.5940907,53.1642695 C44.4806983,55.0783082 41.3947098,55.4867343 39.9158353,53.4831231 L30.4438322,40.4431422 L18.4492254,54.8555542 C18.5834847,54.9410068 18.7241727,55.0176834 18.8728257,55.0830467 C20.0019427,55.579211 21.2451011,55.8022251 22.4824582,55.8204147 C32.8348855,55.8734551 43.1876181,55.8537369 53.5400455,55.8205676 C58.6983209,55.77089 63.5917209,51.8371905 64.6684735,46.7373672 C65.3925679,43.308239 64.44894,39.5857837 62.1577301,36.8978449 C62.1577301,36.8978449 60.9657148,34.9422299 62.1383416,33.7093089 C62.6218345,33.201222 63.3172277,32.9623111 64.0576573,33.0127529 C65.3318069,33.2192588 66.1476534,34.4469827 66.9006016,35.6028652 C69.6122534,39.7650816 70.2271916,45.2137178 68.5216082,49.8736271 C66.2966554,55.9533978 60.2055913,60.3422967 53.5693573,60.4061898 C43.2280746,60.4392062 32.8864866,60.4064955 22.5452039,60.4064955 C19.1552576,60.3890701 15.5521897,59.3461468 13.5921122,56.6196887 C13.5217764,56.5218436 13.460365,56.4189748 13.4075868,56.3122469 C13.2033646,56.0171851 13.0658917,55.6773759 13.0248057,55.315232 C12.9704567,54.8367988 13.0704528,54.3459844 13.3073903,53.9268585 C13.3976158,53.7674317 13.4305917,53.7341095 13.5409691,53.5887453 L27.9146162,36.3189865 C29.2487635,34.7621678 31.9517133,34.7739375 33.2392975,36.4950744 L42.5126822,49.2617522 L52.2932231,31.4831422 C51.9862119,31.0302356 51.6998107,30.5352941 51.373411,30.1033285 C47.2265472,24.6154088 39.3810466,22.3028795 32.9138138,24.754506 C27.4208947,26.8366841 23.3227313,32.1237536 22.6508487,37.9711862 C22.6508487,37.9711862 22.5824544,38.1405485 22.4474977,38.3812936 C22.2650619,39.1056691 21.7052361,39.7458219 20.6478721,39.9987954 C17.816225,40.7036056 15.4633381,43.0318788 14.7549684,45.9252535 C14.7549684,45.9252535 14.0698038,47.5149359 12.7838989,47.6581601 C11.310673,47.8220197 9.93545857,46.3173242 10.3310159,44.733756 C10.3675031,44.5879332 10.4065855,44.4427219 10.4481107,44.2981219 C11.5485265,40.4799801 14.5268855,37.2836486 18.3314724,35.9146875 L18.3337624,35.902612 C20.0364451,26.9355807 28.227734,19.6022538 37.5951609,19.1591298 C37.8412583,19.1475129 38.0873558,19.1409402 38.3336059,19.1372717 L38.6700815,19.1360488 L38.6700815,19.1360488 C44.8435852,19.1753323 50.8828955,22.1455927 54.757556,27.0036008 L60.0950612,17.3014943 C60.0950612,17.3014943 60.8099956,16.3028986 61.714083,16.1479046 C62.1009384,16.0814131 62.2003239,16.119168 62.3284106,16.1261993 Z"/>
    <g transform="translate(100 20)">
      <path fill="#000" d="M19.5449659,39.245283 C25.1139508,39.245283 30.2544826,36.8326038 33.8422114,33.0796981 L28.1126697,27.9326792 C25.9707061,30.3989434 22.9184682,32.0609811 19.5449659,32.0609811 C13.3869712,32.0609811 8.13925076,26.5923019 8.13925076,20.1587925 C8.13925076,13.778717 13.3869712,8.31003774 19.5449659,8.31003774 C22.9184682,8.31003774 25.9707061,9.97207547 28.1126697,12.4383396 L33.8422114,7.2914717 C30.2544826,3.48483019 25.1139508,1.12588679 19.5449659,1.12588679 C8.99600606,1.12588679 7.10542736e-15,9.81132075 7.10542736e-15,20.1587925 C7.10542736e-15,30.5061132 8.99600606,39.245283 19.5449659,39.245283 Z"/>
      <polygon fill="#000" points="46.372 31.471 46.372 1.769 38.447 1.769 38.447 38.602 64.686 38.602 64.686 31.471"/>
      <path fill="#000" d="M87.8720682 39.245283C98.5276136 39.245283 107.41628 30.5061132 107.41628 20.1587925 107.41628 9.81132075 98.5276136 1.12588679 87.8720682 1.12588679 77.3235606 1.12588679 68.3263485 9.81132075 68.3263485 20.1587925 68.3263485 30.5061132 77.3235606 39.245283 87.8720682 39.245283zM87.8720682 32.0609811C81.7136212 32.0609811 76.46575 26.5923019 76.46575 20.1587925 76.46575 13.778717 81.7136212 8.31003774 87.8720682 8.31003774 94.0832803 8.31003774 99.3311515 13.778717 99.3311515 20.1587925 99.3311515 26.5923019 94.0832803 32.0609811 87.8720682 32.0609811zM129.85353 39.245283C139.5985 39.245283 146.506212 32.3826415 146.506212 22.6784906L146.506212 1.76920755 138.582394 1.76920755 138.582394 22.3568302C138.582394 28.04 134.940091 32.0609811 129.85353 32.0609811 124.712697 32.0609811 121.071902 28.04 121.071902 22.3568302L121.071902 1.76920755 113.199341 1.76920755 113.199341 22.6784906C113.199341 32.3826415 120.054288 39.245283 129.85353 39.245283zM154.003386 38.6018113L167.176583 38.6018113C179.546242 38.6018113 188.327871 30.9350943 188.327871 20.1587925 188.327871 9.38233962 179.546242 1.76920755 167.176583 1.76920755L154.003386 1.76920755 154.003386 38.6018113zM161.874439 31.4176604L161.874439 8.95350943 168.194197 8.95350943C175.208947 8.95350943 180.18847 13.6178113 180.18847 20.1587925 180.18847 26.7532075 175.208947 31.4176604 168.194197 31.4176604L161.874439 31.4176604z"/>
      <path fill="#1E6AFF" d="M194.432045 38.6018113L202.303098 38.6018113 202.303098 26.6460377 210.977689 26.6460377C218.957288 26.6460377 224.847386 21.4990189 224.847386 14.2075472 224.847386 6.91607547 218.957288 1.76920755 210.977689 1.76920755L194.432045 1.76920755 194.432045 38.6018113zM202.303098 19.4081509L202.303098 9.00709434 210.121386 9.00709434C214.03053 9.00709434 216.707985 11.0443774 216.707985 14.2075472 216.707985 17.3708679 214.03053 19.4081509 210.121386 19.4081509L202.303098 19.4081509zM242.62472 32.3290566C239.357803 32.3290566 236.948697 30.2917736 236.038121 27.2893585L256.011992 27.2893585C256.011992 16.834717 250.925432 10.2401509 242.250841 10.2401509 234.164205 10.2401509 228.005758 16.298566 228.005758 24.6623396 228.005758 33.1868679 234.432553 39.245283 242.678992 39.245283 246.747939 39.245283 251.513386 37.5295094 253.976765 34.9560755L248.997242 29.8627925C247.497205 31.3103396 244.81975 32.3290566 242.62472 32.3290566zM242.571955 17.1563774C245.730326 17.1563774 247.765553 18.9255849 248.514818 21.6599245L236.145159 21.6599245C237.162773 18.872 239.626152 17.1563774 242.571955 17.1563774zM269.130917 16.0304906L269.130917 10.8834717 261.312629 10.8834717 261.312629 38.6018113 269.130917 38.6018113 269.130917 25.3592453C269.130917 20.1587925 272.825985 16.834717 278.609045 16.834717L278.609045 10.2401509C274.378788 10.2401509 270.952068 12.4383396 269.130917 16.0304906zM292.370197 9.38233962C292.370197 7.55954717 293.549121 6.27275472 294.994886 6.27275472 296.065265 6.27275472 297.137152 6.648 297.672341 7.18415094L299.546258 2.4125283C297.939182.964981132 295.423038 7.10542736e-15 293.173735 7.10542736e-15 288.30125 7.10542736e-15 284.87453 3.48483019 284.87453 8.4709434L284.87453 10.8834717 281.072424 10.8834717 281.072424 17.2099623 284.87453 17.2099623 284.87453 38.6018113 292.370197 38.6018113 292.370197 17.2099623 298.368841 17.2099623 298.368841 10.8834717 292.370197 10.8834717 292.370197 9.38233962z"/>
    </g>
  </g>
</svg>
