<svg xmlns="http://www.w3.org/2000/svg" width="80" height="80" viewBox="0 0 80 80">
  <g fill="none" fill-rule="evenodd">
    <path fill="#FFF" d="M60.6129039,1.55767769 L18.8389338,1.56532039 C9.29731511,1.56532039 1.56020733,9.26610855 1.56020733,18.7659891 L1.56020733,60.7855736 C1.56020733,70.2839256 9.29578845,77.9847138 18.8389338,77.9847138 L60.6129039,77.9770711 C70.1545226,77.9770711 77.8916304,70.2762829 77.8916304,60.7779309 L77.8916304,18.7568179 C77.8916304,9.25846584 70.1545226,1.55767769 60.6129039,1.55767769 Z"/>
    <path fill="#E6EBF3" d="M60.7342733,0.0294426778 C70.1734532,0.119168018 78.9576964,7.99298698 79.3995115,17.9136748 C79.4103508,18.1542671 79.4156941,18.3950123 79.4179841,18.6357575 C79.4633259,32.7234002 79.4633259,46.8111957 79.4179841,60.8988384 C79.368215,66.1200278 77.04235,71.2566889 73.1701321,74.7182222 C69.7812545,77.7476371 65.2927244,79.4625069 60.7342733,79.5051532 C46.7287037,79.5500923 32.7231341,79.557735 18.7175644,79.5127959 C9.23060012,79.4239877 0.49414135,71.5486402 0.0523262371,61.6285638 C0.0416396241,61.3879715 0.0362963176,61.1473791 0.0340063291,60.9064811 C-0.011335443,46.8194498 -0.011335443,32.7321128 0.0340063291,18.6449287 C0.0843860759,13.3577064 2.47681339,8.14293683 6.45055409,4.67513649 C9.81592117,1.7380455 14.2435376,0.0795788135 18.7175644,0.0370853815 C32.7231341,-0.00693659132 46.7288563,-0.0145792949 60.7342733,0.0294426778 Z M18.8415292,3.09386112 C10.7606178,3.11923489 3.1702219,9.95609183 3.08717165,18.664494 C3.04198255,32.7385327 3.04198255,46.8128771 3.08717165,60.8869158 C3.1648786,69.0343436 10.2331571,76.3760775 18.7368003,76.4557145 C32.729546,76.5006536 46.7224444,76.4930109 60.7150374,76.4480718 C68.8190013,76.3722561 76.2826845,69.4812889 76.3646661,60.8792731 C76.4100079,46.8047759 76.4100079,32.7299729 76.3646661,18.6553228 C76.2872645,10.5318931 69.2290619,3.16738392 60.7150374,3.08652412 C46.7572522,3.042655 32.7993143,3.0912626 18.8415292,3.09386112 Z"/>
    <path fill="#1E6AFF" d="M62.3284106,16.1261993 C63.8608709,16.3493663 64.7957969,18.1163593 64.106663,19.5139041 C57.9359074,30.7307945 51.8494233,41.9944582 45.5940907,53.1642695 C44.4806983,55.0783082 41.3947098,55.4867343 39.9158353,53.4831231 L30.4438322,40.4431422 L18.4492254,54.8555542 C18.5834847,54.9410068 18.7241727,55.0176834 18.8728257,55.0830467 C20.0019427,55.579211 21.2451011,55.8022251 22.4824582,55.8204147 C32.8348855,55.8734551 43.1876181,55.8537369 53.5400455,55.8205676 C58.6983209,55.77089 63.5917209,51.8371905 64.6684735,46.7373672 C65.3925679,43.308239 64.44894,39.5857837 62.1577301,36.8978449 C62.1577301,36.8978449 60.9657148,34.9422299 62.1383416,33.7093089 C62.6218345,33.201222 63.3172277,32.9623111 64.0576573,33.0127529 C65.3318069,33.2192588 66.1476534,34.4469827 66.9006016,35.6028652 C69.6122534,39.7650816 70.2271916,45.2137178 68.5216082,49.8736271 C66.2966554,55.9533978 60.2055913,60.3422967 53.5693573,60.4061898 C43.2280746,60.4392062 32.8864866,60.4064955 22.5452039,60.4064955 C19.1552576,60.3890701 15.5521897,59.3461468 13.5921122,56.6196887 C13.5217764,56.5218436 13.460365,56.4189748 13.4075868,56.3122469 C13.2033646,56.0171851 13.0658917,55.6773759 13.0248057,55.315232 C12.9704567,54.8367988 13.0704528,54.3459844 13.3073903,53.9268585 C13.3976158,53.7674317 13.4305917,53.7341095 13.5409691,53.5887453 L27.9146162,36.3189865 C29.2487635,34.7621678 31.9517133,34.7739375 33.2392975,36.4950744 L42.5126822,49.2617522 L52.2932231,31.4831422 C51.9862119,31.0302356 51.6998107,30.5352941 51.373411,30.1033285 C47.2265472,24.6154088 39.3810466,22.3028795 32.9138138,24.754506 C27.4208947,26.8366841 23.3227313,32.1237536 22.6508487,37.9711862 C22.6508487,37.9711862 22.5824544,38.1405485 22.4474977,38.3812936 C22.2650619,39.1056691 21.7052361,39.7458219 20.6478721,39.9987954 C17.816225,40.7036056 15.4633381,43.0318788 14.7549684,45.9252535 C14.7549684,45.9252535 14.0698038,47.5149359 12.7838989,47.6581601 C11.310673,47.8220197 9.93545857,46.3173242 10.3310159,44.733756 C10.3675031,44.5879332 10.4065855,44.4427219 10.4481107,44.2981219 C11.5485265,40.4799801 14.5268855,37.2836486 18.3314724,35.9146875 L18.3337624,35.902612 C20.0364451,26.9355807 28.227734,19.6022538 37.5951609,19.1591298 C37.8412583,19.1475129 38.0873558,19.1409402 38.3336059,19.1372717 L38.6700815,19.1360488 L38.6700815,19.1360488 C44.8435852,19.1753323 50.8828955,22.1455927 54.757556,27.0036008 L60.0950612,17.3014943 C60.0950612,17.3014943 60.8099956,16.3028986 61.714083,16.1479046 C62.1009384,16.0814131 62.2003239,16.119168 62.3284106,16.1261993 Z"/>
  </g>
</svg>
